<svg width="14" height="11" viewBox="0 0 14 11" fill="none" xmlns="http://www.w3.org/2000/svg">
<path d="M12.896 6.37891L8.521 10.7539C8.35693 10.918 8.13818 11 7.91943 11C7.67334 11 7.45459 10.918 7.29053 10.7539C6.93506 10.4258 6.93506 9.85156 7.29053 9.52344L10.1616 6.625H1.79443C1.30225 6.625 0.919434 6.24219 0.919434 5.75C0.919434 5.28516 1.30225 4.875 1.79443 4.875H10.1616L7.29053 2.00391C6.93506 1.67578 6.93506 1.10156 7.29053 0.773438C7.61865 0.417969 8.19287 0.417969 8.521 0.773438L12.896 5.14844C13.2515 5.47656 13.2515 6.05078 12.896 6.37891Z" fill="#1A1A1A"/>
</svg>
