<svg width="18" height="14" viewBox="0 0 18 14" fill="none" xmlns="http://www.w3.org/2000/svg">
<path d="M6.0187 0.240882C9.04751 0.240882 11.5449 2.33979 11.5449 4.91693C11.5449 7.52064 9.04751 9.59298 6.0187 9.59298C5.5139 9.59298 5.03567 9.53985 4.55744 9.43357C3.76038 9.93837 2.59137 10.4432 1.13011 10.4432C0.864421 10.4432 0.625304 10.3103 0.545599 10.0446C0.439325 9.80553 0.465894 9.53985 0.651873 9.3273C0.678441 9.3273 1.26295 8.68965 1.68804 7.83946C0.944126 7.04241 0.492462 6.03281 0.492462 4.91693C0.492462 2.33979 2.96333 0.240882 6.0187 0.240882ZM4.84969 8.18485C5.24822 8.29113 5.62018 8.3177 6.0187 8.3177C8.35673 8.3177 10.2697 6.80329 10.2697 4.91693C10.2697 3.05714 8.35673 1.51617 6.0187 1.51617C3.65411 1.51617 1.76775 3.05714 1.76775 4.91693C1.76775 5.8734 2.21941 6.56418 2.61794 6.9627L3.25558 7.62692L2.83049 8.45054C2.72421 8.60995 2.61794 8.79593 2.51167 8.98191C2.9899 8.84907 3.44156 8.63652 3.89323 8.34426L4.34489 8.07858L4.84969 8.18485ZM12.2092 3.66821C15.1583 3.77449 17.4963 5.82026 17.4963 8.3177C17.4963 9.43357 17.018 10.4432 16.2741 11.2402C16.6992 12.0904 17.2837 12.7281 17.3103 12.7281C17.4963 12.9406 17.5228 13.2063 17.4166 13.4454C17.3369 13.7111 17.0978 13.8439 16.8321 13.8439C15.3708 13.8439 14.2018 13.3391 13.4047 12.8343C12.9265 12.9406 12.4483 12.9937 11.97 12.9937C9.79142 12.9937 7.90506 11.931 7.00174 10.39C7.4534 10.3369 7.90506 10.2306 8.30359 10.0712C9.04751 11.0808 10.4025 11.7185 11.97 11.7185C12.342 11.7185 12.714 11.6919 13.1125 11.5856L13.6173 11.4793L14.0689 11.745C14.5206 12.0373 14.9723 12.2498 15.4505 12.3827C15.3442 12.1967 15.238 12.0107 15.1317 11.8513L14.7066 11.0277L15.3442 10.3635C15.7428 9.96494 16.221 9.27416 16.221 8.3177C16.221 6.56418 14.5206 5.12948 12.3686 4.9435L12.3951 4.91693C12.3951 4.49184 12.3154 4.06674 12.2092 3.66821Z" fill="#1A1A1A"/>
</svg>
