<svg width="13" height="14" viewBox="0 0 13 14" fill="none" xmlns="http://www.w3.org/2000/svg">
<path d="M7.79069 8.31672C10.3678 8.31672 12.4667 10.4156 12.4667 12.9928C12.4667 13.471 12.0682 13.843 11.6166 13.843H1.41426C0.93603 13.843 0.564072 13.471 0.564072 12.9928C0.564072 10.4156 2.63641 8.31672 5.24012 8.31672H7.79069ZM1.83936 12.5677H11.1649C10.9523 10.8939 9.51764 9.59201 7.79069 9.59201H5.24012C3.4866 9.59201 2.05191 10.8939 1.83936 12.5677ZM6.51541 7.04143C4.62905 7.04143 3.11464 5.52703 3.11464 3.64067C3.11464 1.78088 4.62905 0.239906 6.51541 0.239906C8.3752 0.239906 9.91617 1.78088 9.91617 3.64067C9.91617 5.52703 8.3752 7.04143 6.51541 7.04143ZM6.51541 1.51519C5.31983 1.51519 4.38993 2.47166 4.38993 3.64067C4.38993 4.83625 5.31983 5.76615 6.51541 5.76615C7.68442 5.76615 8.64088 4.83625 8.64088 3.64067C8.64088 2.47166 7.68442 1.51519 6.51541 1.51519Z" fill="#1A1A1A"/>
</svg>
