<svg width="42" height="42" viewBox="0 0 42 42" fill="none" xmlns="http://www.w3.org/2000/svg">
<path fill-rule="evenodd" clip-rule="evenodd" d="M20.8606 41.6022C32.325 41.6022 41.6187 32.3085 41.6187 20.844C41.6187 9.37968 32.325 0.0859375 20.8606 0.0859375C9.39613 0.0859375 0.102417 9.37968 0.102417 20.844C0.102417 32.3085 9.39613 41.6022 20.8606 41.6022ZM27.3364 9.75595C27.6516 8.63627 26.565 7.97416 25.5727 8.68116L11.7198 18.5499C10.6436 19.3166 10.8129 20.844 11.9741 20.844H15.6219V20.8158H22.7314L16.9385 22.8598L14.3848 31.9322C14.0696 33.0519 15.156 33.714 16.1485 33.007L30.0013 23.1383C31.0775 22.3716 30.9081 20.844 29.747 20.844H24.2152L27.3364 9.75595Z" fill="#1A1A1A"/>
</svg>
