<svg width="175" height="42" viewBox="0 0 175 42" fill="none" xmlns="http://www.w3.org/2000/svg">
<path d="M13.1628 39.7693L8.96252 32.4943L15.1266 21.8472L19.0436 28.6321L42.1665 28.6197L35.6052 39.8698L13.1628 39.7693Z" fill="#1A1A1A"/>
<path d="M46.298 21.3977L42.0978 28.6726L29.7951 28.6581L33.7124 21.8733L22.1403 1.85449L35.1637 1.91164L46.298 21.3977Z" fill="#1A1A1A"/>
<path d="M13.8118 1.81543H22.2122L28.351 12.4774L20.5164 12.477L8.96579 32.5083L2.50348 21.2011L13.8118 1.81543Z" fill="#1A1A1A"/>
<path d="M13.1091 0.585938H22.925L22.9493 0.628128L23.2367 0.629389L35.8798 0.684854L47.7158 21.3989L44.6898 26.6401L44.2567 27.3901H44.3094L36.3131 41.1009L12.4563 40.9942L9.40515 35.7094L8.97228 34.9596L8.96411 34.9738L1.08822 21.1933L13.1091 0.585938ZM24.8005 3.84362L30.4777 13.7037H30.4111L30.8448 14.4539L35.1324 21.8709L32.3749 26.6468L31.9416 27.3972L32.8082 27.3968L41.1313 27.3924L41.4198 27.3922L41.564 27.1424L44.74 21.6413L44.8836 21.3925L44.7411 21.1432L34.5943 3.38521L34.451 3.13454L34.1623 3.13327L25.236 3.09413L24.3667 3.09032L24.8005 3.84362ZM21.5556 3.2916L21.4112 3.04182H21.1227H14.8069H14.5198L14.3751 3.28989L4.06963 20.9563L3.92416 21.2057L4.06742 21.4564L8.53973 29.2817L8.97106 30.0364L9.40656 29.2841L10.0801 28.1206L10.0805 28.1199L19.8097 11.2475L25.288 11.2476L26.1546 11.2476L25.7209 10.4974L21.5556 3.2916ZM16.6848 21.583L16.5407 21.8329L16.6849 22.0828L19.6124 27.1537L19.7568 27.4039L20.0457 27.4038L28.8163 27.399L29.1048 27.3988L29.249 27.149L32.1516 22.1218L32.296 21.8716L32.1515 21.6216L27.7188 13.9534L27.5745 13.7037L27.286 13.7037L21.5173 13.7034L21.2284 13.7034L21.0841 13.9536L16.6848 21.583ZM10.533 32.2515L10.3889 32.5014L10.5331 32.7512L13.7343 38.2959L13.8779 38.5446L14.1651 38.5459L34.6174 38.6375L34.9061 38.6388L35.0515 38.3894L39.5669 30.647L40.0048 29.8961L39.1356 29.8951L27.6722 29.8815L27.6873 29.8555L26.8196 29.856L18.3392 29.8606L15.5618 25.0496L15.1294 24.3006L14.696 25.0491L12.2071 29.3483L12.2067 29.349L10.533 32.2515Z" fill="#1A1A1A" stroke="black"/>
<path d="M111.234 12.7325C112.418 12.7325 113.379 11.7709 113.379 10.5629C113.379 9.35482 112.418 8.41797 111.234 8.41797C110.026 8.41797 109.065 9.35482 109.065 10.5629C109.065 11.7709 110.026 12.7325 111.234 12.7325ZM109.311 26.9825H113.133V14.6555H109.311V26.9825Z" fill="#1A1A1A"/>
<path d="M115.353 32.8989H119.1V25.7491C119.815 26.6861 121.442 27.327 123.143 27.327C126.817 27.327 129.036 24.5165 128.938 20.6211C128.838 16.6517 126.546 14.2603 123.119 14.2603C121.368 14.2603 119.716 15.0245 119.026 16.1586L118.829 14.6548H115.353V32.8989ZM119.174 20.8183C119.174 18.9692 120.407 17.7366 122.182 17.7366C123.982 17.7366 125.116 18.9939 125.116 20.8183C125.116 22.6427 123.982 23.9001 122.182 23.9001C120.407 23.9001 119.174 22.6673 119.174 20.8183Z" fill="#1A1A1A"/>
<path d="M129.341 23.0865C129.439 25.5766 131.413 27.3023 134.518 27.3023C137.502 27.3023 139.573 25.7245 139.573 23.185C139.573 21.3607 138.488 20.1527 136.466 19.6595L134.272 19.1171C133.483 18.9199 132.989 18.7227 132.989 18.0817C132.989 17.4407 133.507 17.0215 134.272 17.0215C135.134 17.0215 135.701 17.5886 135.677 18.4269H139.104C139.006 15.8628 137.057 14.2603 134.345 14.2603C131.609 14.2603 129.563 15.8874 129.563 18.3529C129.563 20.0047 130.475 21.3607 132.916 22.0017L135.085 22.5688C135.726 22.7413 135.997 23.0372 135.997 23.4562C135.997 24.0726 135.43 24.4672 134.469 24.4672C133.36 24.4672 132.769 23.9494 132.769 23.0865H129.341Z" fill="#1A1A1A"/>
<path d="M145.387 27.3018C146.891 27.3018 148.395 26.6116 149.16 25.6008L149.406 26.9813H152.981V14.6543H149.184V21.0643C149.184 22.9134 148.642 23.9243 146.891 23.9243C145.535 23.9243 144.647 23.3079 144.647 21.015V14.6543H140.851V22.3956C140.851 25.3296 142.478 27.3018 145.387 27.3018Z" fill="#1A1A1A"/>
<path d="M159.003 26.983V20.2525C159.003 18.1816 160.113 17.5898 161.198 17.5898C162.406 17.5898 163.195 18.3294 163.195 19.8581V26.983H166.942V20.2525C166.942 18.1569 168.026 17.5652 169.111 17.5652C170.32 17.5652 171.134 18.3048 171.134 19.8581V26.983H174.831V18.9211C174.831 16.1105 173.352 14.2368 170.172 14.2368C168.397 14.2368 166.942 15.0997 166.301 16.431C165.561 15.0997 164.28 14.2368 162.233 14.2368C160.877 14.2368 159.619 14.8532 158.881 15.8393L158.732 14.656H155.182V26.983H159.003Z" fill="#1A1A1A"/>
<path d="M59.1601 8.73926H55.1169V26.9834H66.3099V23.4085H59.1601V8.73926Z" fill="#1A1A1A"/>
<path d="M66.6961 20.7964C66.6961 24.6917 69.3095 27.2805 73.2541 27.2805C77.1742 27.2805 79.7875 24.6917 79.7875 20.7964C79.7875 16.901 77.1742 14.2876 73.2541 14.2876C69.3095 14.2876 66.6961 16.901 66.6961 20.7964ZM70.5175 20.7718C70.5175 18.9226 71.6023 17.6899 73.2541 17.6899C74.8813 17.6899 75.9661 18.9226 75.9661 20.7718C75.9661 22.6455 74.8813 23.8781 73.2541 23.8781C71.6023 23.8781 70.5175 22.6455 70.5175 20.7718Z" fill="#1A1A1A"/>
<path d="M80.4002 20.6004C80.4002 24.3233 82.8165 26.838 86.2434 26.838C87.8952 26.838 89.3252 26.2464 90.0401 25.2848V26.9859C90.0401 28.6871 88.98 29.8211 87.1063 29.8211C85.4298 29.8211 84.271 29.0322 84.197 27.6269H80.351C80.6961 31.0046 83.3095 33.2728 86.8844 33.2728C91.1002 33.2728 93.7628 30.5362 93.7628 26.197V14.6588H90.336L90.1388 15.9163C89.4484 14.9053 87.9939 14.2397 86.3173 14.2397C82.8657 14.2397 80.4002 16.8284 80.4002 20.6004ZM84.2463 20.5019C84.2463 18.7267 85.4298 17.5434 86.9336 17.5434C88.6841 17.5434 89.9661 18.7021 89.9661 20.5019C89.9661 22.3016 88.7088 23.5343 86.9583 23.5343C85.4544 23.5343 84.2463 22.3016 84.2463 20.5019Z" fill="#1A1A1A"/>
<path d="M94.8724 20.7964C94.8724 24.6917 97.4857 27.2805 101.43 27.2805C105.35 27.2805 107.964 24.6917 107.964 20.7964C107.964 16.901 105.35 14.2876 101.43 14.2876C97.4857 14.2876 94.8724 16.901 94.8724 20.7964ZM98.6938 20.7718C98.6938 18.9226 99.7786 17.6899 101.43 17.6899C103.058 17.6899 104.142 18.9226 104.142 20.7718C104.142 22.6455 103.058 23.8781 101.43 23.8781C99.7786 23.8781 98.6938 22.6455 98.6938 20.7718Z" fill="#1A1A1A"/>
</svg>
