<svg width="42" height="42" viewBox="0 0 42 42" fill="none" xmlns="http://www.w3.org/2000/svg">
<path fill-rule="evenodd" clip-rule="evenodd" d="M0.567383 2.69702C0.567383 1.25496 1.74914 0.0859375 3.20709 0.0859375H7.80563C8.84322 0.0859375 9.84885 0.441627 10.6512 1.09246L12.05 2.22718L12.085 2.25874C12.1173 2.24797 12.1496 2.23744 12.182 2.22718C14.7057 1.42759 17.7678 1.27552 20.893 1.27552C24.0182 1.27552 27.0803 1.42759 29.604 2.22718C29.6364 2.23744 29.6687 2.24797 29.701 2.25874L29.7359 2.22718L31.1348 1.09246C31.9371 0.441627 32.9428 0.0859375 33.9804 0.0859375H38.5789C40.0368 0.0859375 41.2186 1.25496 41.2186 2.69702V4.31115C41.2186 5.56001 40.6868 6.7511 39.7535 7.59221L38.625 8.60935C38.0741 9.10591 37.4128 9.46728 36.6946 9.6643L36.4276 9.73753C37.4733 12.2056 38.051 14.8437 38.051 16.9779C38.051 25.5628 32.681 29.2705 27.9494 32.5374C24.2232 35.1102 20.893 37.4095 20.893 41.6022C20.893 37.4095 17.5628 35.1102 13.8366 32.5374C9.10498 29.2705 3.73496 25.5628 3.73496 16.9779C3.73496 14.8437 4.31266 12.2056 5.35835 9.73753L5.0914 9.6643C4.37317 9.46728 3.71192 9.10591 3.161 8.60935L2.03249 7.59221C1.0992 6.7511 0.567383 5.56001 0.567383 4.31115V2.69702ZM24.3246 23.9964C24.3246 24.4066 24.1438 24.7999 23.8221 25.0899C23.5003 25.3799 23.0639 25.5429 22.6087 25.5429C22.2159 25.5429 21.8369 25.4214 21.5336 25.2015C22.0498 26.5684 23.371 27.8636 25.3805 25.7808C27.1545 23.8454 25.3016 19.7634 23.4965 17.3412C22.8948 16.5338 21.907 16.1452 20.893 16.1452C19.879 16.1452 18.8912 16.5338 18.2895 17.3412C16.4844 19.7634 14.6315 23.8454 16.4055 25.7808C18.415 27.8636 19.7361 26.5684 20.2524 25.2015C19.9491 25.4214 19.5701 25.5429 19.1772 25.5429C18.7221 25.5429 18.2857 25.3799 17.9639 25.0899C17.6422 24.7999 17.4614 24.4066 17.4614 23.9964H24.3246ZM14.3223 11.913H9.54236L13.3094 14.8967C14.1384 15.5532 15.3501 15.3433 15.863 14.4543C16.5106 13.3319 15.6504 11.913 14.3223 11.913ZM27.4637 11.913H32.2436L28.4766 14.8967C27.6476 15.5532 26.4359 15.3433 25.923 14.4543C25.2753 13.3319 26.1356 11.913 27.4637 11.913Z" fill="#1A1A1A"/>
</svg>
