<svg width="176" height="42" viewBox="0 0 176 42" fill="none" xmlns="http://www.w3.org/2000/svg">
<path d="M53.221 29.1469H65.6261V25.4104H57.63V11.3364H53.221V29.1469Z" fill="#1A1A1A"/>
<path d="M72.9721 26.656C71.2035 26.656 70.2818 25.1116 70.2818 22.795C70.2818 20.4784 71.2035 18.9091 72.9721 18.9091C74.7407 18.9091 75.6872 20.4784 75.6872 22.795C75.6872 25.1116 74.7407 26.656 72.9721 26.656ZM72.997 29.5455C77.1071 29.5455 79.7973 26.6311 79.7973 22.795C79.7973 18.9589 77.1071 16.0444 72.997 16.0444C68.9118 16.0444 66.1717 18.9589 66.1717 22.795C66.1717 26.6311 68.9118 29.5455 72.997 29.5455Z" fill="#1A1A1A"/>
<path d="M86.9118 33.5565C88.805 33.5565 90.4739 33.133 91.5949 32.1366C92.6162 31.215 93.2887 29.82 93.2887 27.902V16.3937H89.4028V17.7637H89.353C88.6057 16.6926 87.4599 16.02 85.766 16.02C82.6025 16.02 80.4104 18.6605 80.4104 22.3969C80.4104 26.3078 83.0757 28.45 85.9404 28.45C87.4848 28.45 88.4563 27.8273 89.2035 26.9803H89.3032V28.2507C89.3032 29.7951 88.5808 30.6919 86.862 30.6919C85.5169 30.6919 84.8443 30.119 84.6202 29.4464H80.6844C81.083 32.1117 83.3996 33.5565 86.9118 33.5565ZM86.8869 25.4359C85.3674 25.4359 84.3711 24.1904 84.3711 22.2724C84.3711 20.3294 85.3674 19.0839 86.8869 19.0839C88.5808 19.0839 89.4776 20.5287 89.4776 22.2475C89.4776 24.041 88.6555 25.4359 86.8869 25.4359Z" fill="#1A1A1A"/>
<path d="M101.278 26.656C99.5095 26.656 98.5878 25.1116 98.5878 22.795C98.5878 20.4784 99.5095 18.9091 101.278 18.9091C103.047 18.9091 103.993 20.4784 103.993 22.795C103.993 25.1116 103.047 26.656 101.278 26.656ZM101.303 29.5455C105.413 29.5455 108.103 26.6311 108.103 22.795C108.103 18.9589 105.413 16.0444 101.303 16.0444C97.2178 16.0444 94.4777 18.9589 94.4777 22.795C94.4777 26.6311 97.2178 29.5455 101.303 29.5455Z" fill="#1A1A1A"/>
<path d="M109.291 29.1469H113.351V16.3931H109.291V29.1469ZM109.291 14.6245H113.351V11.3364H109.291V14.6245Z" fill="#1A1A1A"/>
<path d="M115.115 33.3572H119.176V27.8273H119.226C120.023 28.8984 121.193 29.546 122.838 29.546C126.175 29.546 128.392 26.9056 128.392 22.7706C128.392 18.9345 126.325 16.02 122.937 16.02C121.193 16.02 119.948 16.7922 119.076 17.9381H119.001V16.3937H115.115V33.3572ZM121.791 26.4074C120.048 26.4074 119.051 24.9875 119.051 22.92C119.051 20.8525 119.948 19.2832 121.717 19.2832C123.46 19.2832 124.282 20.728 124.282 22.92C124.282 25.0872 123.336 26.4074 121.791 26.4074Z" fill="#1A1A1A"/>
<path d="M135.001 29.546C138.339 29.546 140.805 28.1013 140.805 25.3114C140.805 22.0482 138.164 21.4753 135.922 21.1016C134.303 20.8027 132.859 20.6781 132.859 19.7814C132.859 18.9843 133.631 18.6106 134.627 18.6106C135.748 18.6106 136.52 18.9594 136.67 20.1052H140.406C140.207 17.5893 138.264 16.02 134.652 16.02C131.638 16.02 129.147 17.415 129.147 20.1052C129.147 23.0944 131.513 23.6922 133.73 24.0659C135.424 24.3648 136.969 24.4893 136.969 25.6352C136.969 26.4572 136.196 26.9056 134.976 26.9056C133.631 26.9056 132.784 26.2828 132.634 25.0124H128.798C128.923 27.8273 131.264 29.546 135.001 29.546Z" fill="#1A1A1A"/>
<path d="M146.321 29.5186C148.089 29.5186 149.21 28.8211 150.132 27.5756H150.207V29.1449H154.093V16.3911H150.032V23.5153C150.032 25.0348 149.185 26.081 147.79 26.081C146.495 26.081 145.872 25.3088 145.872 23.9139V16.3911H141.837V24.7608C141.837 27.6005 143.381 29.5186 146.321 29.5186Z" fill="#1A1A1A"/>
<path d="M155.858 29.1475H159.918V21.9984C159.918 20.4789 160.665 19.4077 161.936 19.4077C163.156 19.4077 163.729 20.2049 163.729 21.5749V29.1475H167.79V21.9984C167.79 20.4789 168.512 19.4077 169.807 19.4077C171.028 19.4077 171.601 20.2049 171.601 21.5749V29.1475H175.661V20.8525C175.661 17.9879 174.216 16.02 171.327 16.02C169.683 16.02 168.313 16.7175 167.316 18.2619H167.266C166.619 16.8919 165.348 16.02 163.679 16.02C161.836 16.02 160.616 16.8919 159.818 18.2121H159.744V16.3937H155.858V29.1475Z" fill="#1A1A1A"/>
<path fill-rule="evenodd" clip-rule="evenodd" d="M20.8606 41.6022C32.325 41.6022 41.6187 32.3085 41.6187 20.844C41.6187 9.37968 32.325 0.0859375 20.8606 0.0859375C9.39613 0.0859375 0.102417 9.37968 0.102417 20.844C0.102417 32.3085 9.39613 41.6022 20.8606 41.6022ZM27.3364 9.75595C27.6516 8.63627 26.565 7.97416 25.5727 8.68116L11.7198 18.5499C10.6436 19.3166 10.8129 20.844 11.9741 20.844H15.6219V20.8158H22.7314L16.9385 22.8598L14.3848 31.9322C14.0696 33.0519 15.156 33.714 16.1485 33.007L30.0013 23.1383C31.0775 22.3716 30.9081 20.844 29.747 20.844H24.2152L27.3364 9.75595Z" fill="#1A1A1A"/>
</svg>
