<svg width="150" height="42" viewBox="0 0 150 42" fill="none" xmlns="http://www.w3.org/2000/svg">
<path fill-rule="evenodd" clip-rule="evenodd" d="M74.4275 4.61749C75.872 3.17307 78.214 3.17307 79.6585 4.61749C81.103 6.06202 81.103 8.40401 79.6585 9.84854L70.8518 18.6553C68.3233 15.2666 68.598 10.4471 71.6758 7.36928L74.4275 4.61749Z" fill="#1A1A1A"/>
<path fill-rule="evenodd" clip-rule="evenodd" d="M87.0151 24.4836C88.4598 25.928 88.4598 28.27 87.0151 29.7145C85.5714 31.159 83.229 31.159 81.7845 29.7145L72.9778 20.9078C76.3664 18.3794 81.1859 18.6539 84.2638 21.7318L87.0151 24.4836Z" fill="#1A1A1A"/>
<path fill-rule="evenodd" clip-rule="evenodd" d="M67.1477 37.0738C65.7033 38.5183 63.3612 38.5183 61.9168 37.0738C60.4722 35.6292 60.4722 33.2873 61.9168 31.8427L70.7234 23.0361C73.2519 26.4248 72.9773 31.2442 69.8994 34.322L67.1477 37.0738Z" fill="#1A1A1A"/>
<path fill-rule="evenodd" clip-rule="evenodd" d="M54.5587 17.206C53.1142 15.7615 53.1142 13.4195 54.5587 11.975C56.0033 10.5305 58.3452 10.5305 59.7897 11.975L68.5965 20.7817C65.2078 23.3102 60.3883 23.0355 57.3105 19.9578L54.5587 17.206Z" fill="#1A1A1A"/>
<path fill-rule="evenodd" clip-rule="evenodd" d="M72.4634 35.9958C74.5933 33.6276 75.5833 30.5973 75.4331 27.6138L79.6626 31.8433C79.6731 31.8538 79.6837 31.8643 79.6943 31.8748V34.8944C79.6943 36.9372 78.0383 38.5932 75.9955 38.5932C74.3362 38.5932 72.9322 37.5007 72.4634 35.9958Z" fill="#1A1A1A"/>
<path fill-rule="evenodd" clip-rule="evenodd" d="M55.6371 22.5171C58.0052 24.6471 61.0354 25.6371 64.019 25.4869L59.7896 29.7164C59.779 29.7269 59.7685 29.7375 59.7581 29.748H56.7385C54.6957 29.7481 53.0397 28.092 53.0397 26.0492C53.0397 24.39 54.1322 22.9859 55.6371 22.5171Z" fill="#1A1A1A"/>
<path fill-rule="evenodd" clip-rule="evenodd" d="M85.942 19.1739C83.5742 17.0439 80.5439 16.0539 77.5603 16.204L81.7897 11.9746C81.8003 11.9641 81.8107 11.9535 81.8212 11.9429H84.8409C86.884 11.9429 88.5401 13.599 88.5401 15.6418C88.5401 17.3011 87.4471 18.7051 85.942 19.1739Z" fill="#1A1A1A"/>
<path fill-rule="evenodd" clip-rule="evenodd" d="M69.1161 5.69076C66.986 8.05887 65.9962 11.0892 66.1463 14.0728L61.9169 9.84334C61.9063 9.83283 61.8957 9.82232 61.8851 9.81181V6.79221C61.8851 4.74939 63.5412 3.09326 65.584 3.09326C67.2432 3.09326 68.6473 4.18587 69.1161 5.69076Z" fill="#1A1A1A"/>
<path fill-rule="evenodd" clip-rule="evenodd" d="M65.5871 0.0859375C61.8822 0.0859375 58.8788 3.08938 58.8788 6.79426V8.09898C56.6498 7.51662 54.1796 8.09867 52.4329 9.84536C49.8132 12.4651 49.8132 16.7126 52.4329 19.3324L53.3555 20.2549C51.3676 21.4192 50.0326 23.5775 50.0326 26.0476C50.0326 29.7525 53.036 32.7559 56.7409 32.7559H58.0455C57.4632 34.9848 58.0452 37.455 59.7919 39.2016C62.4117 41.8214 66.6592 41.8214 69.279 39.2016L72.0306 36.45C74.458 34.0226 75.5918 30.7913 75.4318 27.6131L79.6614 31.8425C82.2811 34.4623 86.5287 34.4623 89.1486 31.8425C91.7685 29.2228 91.7685 24.9753 89.1486 22.3556L88.2264 21.4332C90.2134 20.2689 91.5489 18.1106 91.5489 15.6405C91.5489 11.9356 88.5449 8.9322 84.8404 8.9322H83.5357C84.1182 6.70318 83.536 4.23298 81.7893 2.48629C79.1696 -0.133478 74.9222 -0.133478 72.3024 2.48629L69.5506 5.23805C67.1232 7.66546 65.9895 10.8966 66.1495 14.0748L61.92 9.84536C61.9094 9.83485 61.8989 9.82434 61.8882 9.81382V6.79426C61.8882 4.75144 63.5443 3.09541 65.5871 3.09541C67.2463 3.09541 68.6504 4.18791 69.1192 5.69281C69.2581 5.53834 69.4019 5.38669 69.5505 5.23805L71.3798 3.40882C70.2154 1.42096 68.0572 0.0859375 65.5871 0.0859375ZM81.8209 11.9417C81.8103 11.9522 81.7999 11.9628 81.7893 11.9733L77.5599 16.2027C80.5436 16.0526 83.5738 17.0425 85.9417 19.1726C87.4468 18.7038 88.5397 17.2997 88.5397 15.6405C88.5397 13.5977 86.8837 11.9417 84.8404 11.9417H81.8209ZM59.7603 29.7464C59.7708 29.7358 59.7813 29.7252 59.7919 29.7147L64.0213 25.4852C61.0377 25.6354 58.0076 24.6454 55.6395 22.5155C54.1346 22.9843 53.042 24.3883 53.042 26.0476C53.042 28.0904 54.6981 29.7464 56.7409 29.7464H59.7603ZM55.5241 22.4104C55.4093 22.3043 55.2962 22.1955 55.1847 22.084V22.0842C55.2962 22.1956 55.4093 22.3043 55.5241 22.4104ZM75.9943 41.6022C73.5241 41.6022 71.3658 40.2671 70.2015 38.2792L72.0306 36.45C72.1794 36.3013 72.3231 36.1497 72.462 35.9952C72.9309 37.5001 74.3349 38.5927 75.9943 38.5927C78.0371 38.5927 79.6931 36.9367 79.6931 34.8939V31.8743C80.5599 32.7298 81.6019 33.3014 82.7026 33.589V34.8939C82.7026 38.5988 79.6991 41.6022 75.9943 41.6022ZM79.6614 4.61426C78.2168 3.16984 75.8749 3.16984 74.4303 4.61426L71.6786 7.366C68.6008 10.4439 68.3261 15.2633 70.8546 18.652L79.6614 9.84526C81.1059 8.40073 81.1059 6.05878 79.6614 4.61426ZM87.02 29.7146C88.4647 28.2701 88.4647 25.9281 87.02 24.4836L84.2686 21.7318C81.1908 18.6541 76.3713 18.3794 72.9826 20.9079L81.7893 29.7146C83.2338 31.1591 85.5763 31.1591 87.02 29.7146ZM67.1509 37.0737C65.7064 38.5182 63.3644 38.5182 61.9199 37.0737C60.4755 35.6291 60.4755 33.2872 61.9199 31.8427L70.7266 23.0359C73.2551 26.4246 72.9804 31.2442 69.9026 34.3219L67.1509 37.0737ZM54.5609 11.9733C53.1165 13.4178 53.1165 15.7598 54.5609 17.2043L57.3127 19.9561C60.3905 23.0338 65.21 23.3085 68.5986 20.78L59.7919 11.9733C58.3474 10.5289 56.0054 10.5289 54.5609 11.9733Z" fill="#1A1A1A"/>
<path d="M0.375244 13.6538H3.66503V23.8764H9.31529V26.6458H0.375244V13.6538Z" fill="#1A1A1A"/>
<path d="M15.2875 26.9225C14.1847 26.9225 13.2182 26.7242 12.388 26.3277C11.5578 25.9188 10.9135 25.3612 10.455 24.6549C10.0089 23.9362 9.78589 23.1123 9.78589 22.1829C9.78589 21.2536 10.0089 20.4358 10.455 19.7295C10.9135 19.0108 11.5578 18.4532 12.388 18.0567C13.2182 17.6478 14.1847 17.4434 15.2875 17.4434C16.3903 17.4434 17.3568 17.6478 18.187 18.0567C19.0172 18.4532 19.6553 19.0108 20.1014 19.7295C20.5599 20.4358 20.7891 21.2536 20.7891 22.1829C20.7891 23.1123 20.5599 23.9362 20.1014 24.6549C19.6553 25.3612 19.0172 25.9188 18.187 26.3277C17.3568 26.7242 16.3903 26.9225 15.2875 26.9225ZM15.2875 24.3761C15.9442 24.3761 16.4647 24.1841 16.8487 23.8C17.2453 23.4034 17.4435 22.8644 17.4435 22.1829C17.4435 21.5014 17.2453 20.9686 16.8487 20.5845C16.4647 20.1879 15.9442 19.9898 15.2875 19.9898C14.6307 19.9898 14.1042 20.1879 13.7077 20.5845C13.3235 20.9686 13.1315 21.5014 13.1315 22.1829C13.1315 22.8644 13.3235 23.4034 13.7077 23.8C14.1042 24.1841 14.6307 24.3761 15.2875 24.3761Z" fill="#1A1A1A"/>
<path d="M26.9354 30.9186C26.3407 30.9186 25.7397 30.8628 25.1325 30.7513C24.5378 30.6398 24.0235 30.4911 23.5899 30.3052V28.0377C24.5687 28.4589 25.6839 28.6696 26.9354 28.6696C27.84 28.6696 28.4905 28.4837 28.887 28.112C29.2959 27.7403 29.5004 27.1951 29.5004 26.4764V25.9374C29.141 26.2472 28.6949 26.4888 28.1621 26.6623C27.6417 26.8358 27.0841 26.9225 26.4893 26.9225C25.5476 26.9225 24.7174 26.7242 23.9987 26.3277C23.2801 25.9312 22.7163 25.3736 22.3074 24.6549C21.9108 23.9362 21.7126 23.1123 21.7126 22.1829C21.7126 21.2412 21.9108 20.411 22.3074 19.6924C22.7039 18.9737 23.2615 18.4222 23.9802 18.0381C24.6988 17.6416 25.5229 17.4434 26.4522 17.4434C27.7285 17.4434 28.7816 17.8337 29.6118 18.6143V17.7221H32.7716V26.0304C32.7716 27.5792 32.2945 28.7812 31.3404 29.6361C30.3987 30.4911 28.9304 30.9186 26.9354 30.9186ZM27.3071 24.3947C27.8152 24.3947 28.2674 24.2646 28.6639 24.0044C29.0605 23.7442 29.3392 23.3973 29.5004 22.9635V21.4023C29.3268 20.9686 29.0418 20.6278 28.6454 20.38C28.2488 20.1199 27.8028 19.9898 27.3071 19.9898C26.6381 19.9898 26.099 20.1879 25.6901 20.5845C25.2812 20.9686 25.0767 21.4952 25.0767 22.1643C25.0767 22.8458 25.2812 23.391 25.6901 23.8C26.099 24.1964 26.6381 24.3947 27.3071 24.3947Z" fill="#1A1A1A"/>
<path d="M39.1038 26.9225C38.001 26.9225 37.0346 26.7242 36.2044 26.3277C35.3742 25.9188 34.7297 25.3612 34.2713 24.6549C33.8252 23.9362 33.6022 23.1123 33.6022 22.1829C33.6022 21.2536 33.8252 20.4358 34.2713 19.7295C34.7297 19.0108 35.3742 18.4532 36.2044 18.0567C37.0346 17.6478 38.001 17.4434 39.1038 17.4434C40.2066 17.4434 41.1731 17.6478 42.0033 18.0567C42.8335 18.4532 43.4716 19.0108 43.9177 19.7295C44.3761 20.4358 44.6055 21.2536 44.6055 22.1829C44.6055 23.1123 44.3761 23.9362 43.9177 24.6549C43.4716 25.3612 42.8335 25.9188 42.0033 26.3277C41.1731 26.7242 40.2066 26.9225 39.1038 26.9225ZM39.1038 24.3761C39.7605 24.3761 40.2809 24.1841 40.6651 23.8C41.0616 23.4034 41.2599 22.8644 41.2599 22.1829C41.2599 21.5014 41.0616 20.9686 40.6651 20.5845C40.2809 20.1879 39.7605 19.9898 39.1038 19.9898C38.4471 19.9898 37.9204 20.1879 37.524 20.5845C37.1398 20.9686 36.9477 21.5014 36.9477 22.1829C36.9477 22.8644 37.1398 23.4034 37.524 23.8C37.9204 24.1841 38.4471 24.3761 39.1038 24.3761Z" fill="#1A1A1A"/>
<path d="M97.0765 13.6538H100.367V26.6458H97.0765V13.6538Z" fill="#1A1A1A"/>
<path d="M102.025 17.7221H105.185V18.6143C106.015 17.8337 107.068 17.4434 108.344 17.4434C109.274 17.4434 110.098 17.6416 110.816 18.0381C111.535 18.4222 112.092 18.9737 112.489 19.6924C112.886 20.3986 113.084 21.2227 113.084 22.1643C113.084 23.0936 112.886 23.9238 112.489 24.6549C112.092 25.3736 111.535 25.9312 110.816 26.3277C110.111 26.7242 109.286 26.9225 108.344 26.9225C107.75 26.9225 107.179 26.8295 106.635 26.6436C106.102 26.4702 105.656 26.2285 105.297 25.9188V30.7141H102.025V17.7221ZM107.49 24.3761C108.159 24.3761 108.698 24.1779 109.106 23.7813C109.515 23.3849 109.72 22.8458 109.72 22.1643C109.72 21.4828 109.515 20.9501 109.106 20.5659C108.698 20.1694 108.159 19.9711 107.49 19.9711C106.994 19.9711 106.548 20.1012 106.151 20.3614C105.754 20.6093 105.47 20.9501 105.297 21.3837V22.9635C105.47 23.3973 105.754 23.7442 106.151 24.0044C106.548 24.2522 106.994 24.3761 107.49 24.3761Z" fill="#1A1A1A"/>
<path d="M117.962 26.9225C117.244 26.9225 116.494 26.8482 115.714 26.6994C114.933 26.5632 114.313 26.3649 113.855 26.1047V23.707C114.363 24.0044 114.969 24.2522 115.676 24.4505C116.394 24.6363 117.051 24.7293 117.647 24.7293C118.08 24.7293 118.396 24.6982 118.594 24.6363C118.793 24.5744 118.891 24.4505 118.891 24.2646C118.891 24.1159 118.824 23.9982 118.687 23.9114C118.564 23.8124 118.327 23.7132 117.981 23.6141C117.647 23.5026 117.256 23.3849 116.81 23.2609C116.054 23.0378 115.46 22.8086 115.026 22.5732C114.592 22.3378 114.27 22.0404 114.059 21.6811C113.848 21.3218 113.743 20.8695 113.743 20.3243C113.743 19.3577 114.121 18.6391 114.877 18.1682C115.645 17.6849 116.692 17.4434 118.018 17.4434C118.662 17.4434 119.338 17.5115 120.044 17.6478C120.763 17.7841 121.301 17.9638 121.661 18.1869V20.5473C121.29 20.2995 120.793 20.095 120.174 19.934C119.567 19.7728 118.997 19.6924 118.464 19.6924C118.043 19.6924 117.714 19.7357 117.479 19.8224C117.244 19.8968 117.126 20.0331 117.126 20.2313C117.126 20.4172 117.244 20.5597 117.479 20.6588C117.714 20.7579 118.136 20.8819 118.743 21.0305C119.139 21.1297 119.307 21.173 119.244 21.1606C120.037 21.3713 120.651 21.6067 121.085 21.867C121.519 22.1272 121.822 22.4369 121.995 22.7963C122.182 23.1432 122.274 23.5893 122.274 24.1345C122.274 24.9895 121.903 25.6709 121.16 26.179C120.428 26.6747 119.362 26.9225 117.962 26.9225Z" fill="#1A1A1A"/>
<path d="M127.163 26.9225C125.936 26.9225 125.013 26.5818 124.394 25.9003C123.787 25.2187 123.483 24.3205 123.483 23.2053V17.7222H126.754V22.8335C126.754 23.862 127.219 24.3762 128.148 24.3762C128.57 24.3762 128.954 24.2771 129.3 24.0788C129.647 23.8805 129.932 23.5894 130.155 23.2053V17.7222H133.426V26.6437H130.267V25.6772C129.883 26.0861 129.418 26.3959 128.873 26.6065C128.328 26.8172 127.758 26.9225 127.163 26.9225Z" fill="#1A1A1A"/>
<path d="M135.099 17.7221H138.129V18.6887C138.501 18.2922 138.929 17.9886 139.412 17.7779C139.895 17.5548 140.409 17.4434 140.954 17.4434C141.623 17.4434 142.156 17.5425 142.553 17.7407C142.962 17.939 143.29 18.2364 143.538 18.6329C143.909 18.2612 144.362 17.9699 144.895 17.7594C145.428 17.5487 145.967 17.4434 146.511 17.4434C147.689 17.4434 148.525 17.747 149.021 18.3541C149.516 18.9489 149.764 19.81 149.764 20.9376V26.6436H146.641V21.4023C146.641 20.9067 146.549 20.5473 146.363 20.3243C146.177 20.1012 145.867 19.9898 145.434 19.9898C144.876 19.9898 144.423 20.1879 144.077 20.5845C144.089 20.7951 144.096 21.1173 144.096 21.551V26.6436H140.973V21.2722C140.973 20.8137 140.893 20.4853 140.731 20.2871C140.57 20.0888 140.285 19.9898 139.877 19.9898C139.244 19.9898 138.7 20.3428 138.241 21.0492V26.6436H135.099V17.7221Z" fill="#1A1A1A"/>
</svg>
