<svg width="42" height="42" viewBox="0 0 42 42" fill="none" xmlns="http://www.w3.org/2000/svg">
<path d="M20.9305 0.0859375C18.2045 0.0859375 15.5051 0.62292 12.9867 1.66605C10.4682 2.70929 8.1799 4.23827 6.25224 6.16581C4.3247 8.09347 2.79572 10.3817 1.75247 12.9002C0.709346 15.4187 0.172363 18.1181 0.172363 20.8441C0.172363 23.57 0.709346 26.2694 1.75247 28.7879C2.79572 31.3064 4.3247 33.5947 6.25224 35.5223C8.1799 37.4498 10.4682 38.9788 12.9867 40.0221C15.5051 41.0652 18.2045 41.6022 20.9305 41.6022V31.2231C19.5674 31.2231 18.2178 30.9547 16.9586 30.433C15.6993 29.9114 14.5551 29.147 13.5914 28.1832C12.6276 27.2194 11.8631 26.0752 11.3415 24.816C10.8199 23.5567 10.5514 22.2071 10.5514 20.8441C10.5514 19.481 10.8199 18.1314 11.3415 16.8721C11.8631 15.6129 12.6276 14.4687 13.5914 13.5049C14.5551 12.5412 15.6993 11.7767 16.9586 11.2551C18.2178 10.7334 19.5674 10.465 20.9305 10.465V0.0859375Z" fill="#1A1A1A"/>
<path d="M20.9321 27.763C24.7536 27.763 27.8514 24.6652 27.8514 20.8437C27.8514 17.0221 24.7536 13.9243 20.9321 13.9243C17.1106 13.9243 14.0128 17.0221 14.0128 20.8437C14.0128 24.6652 17.1106 27.763 20.9321 27.763Z" fill="#1A1A1A"/>
<path d="M0.172363 20.8447C0.172363 23.5707 0.709346 26.2701 1.75247 28.7886C2.79572 31.3071 4.3247 33.5953 6.25224 35.523C8.1799 37.4505 10.4682 38.9795 12.9867 40.0227C15.5051 41.0659 18.2045 41.6029 20.9305 41.6029C23.6564 41.6029 26.3558 41.0659 28.8743 40.0227C31.3928 38.9795 33.6811 37.4505 35.6087 35.523C37.5363 33.5953 39.0653 31.3071 40.1085 28.7886C41.1516 26.2701 41.6886 23.5707 41.6886 20.8447H31.3096C31.3096 22.2078 31.0411 23.5574 30.5194 24.8166C29.9979 26.0759 29.2334 27.2201 28.2696 28.1839C27.3058 29.1476 26.1617 29.9121 24.9024 30.4337C23.6432 30.9554 22.2935 31.2238 20.9305 31.2238C19.5675 31.2238 18.2178 30.9554 16.9586 30.4337C15.6993 29.9121 14.5551 29.1476 13.5914 28.1839C12.6276 27.2201 11.8631 26.0759 11.3415 24.8166C10.8199 23.5574 10.5514 22.2078 10.5514 20.8447H0.172363Z" fill="#1A1A1A"/>
<path d="M27.8515 20.8438C27.8515 19.0086 27.1225 17.2487 25.825 15.951C24.5273 14.6533 22.7673 13.9243 20.9322 13.9243C19.0971 13.9243 17.3371 14.6533 16.0395 15.951C14.7418 17.2487 14.0128 19.0086 14.0128 20.8438H20.9322H27.8515Z" fill="#1A1A1A"/>
</svg>
