<svg width="146" height="42" viewBox="0 0 146 42" fill="none" xmlns="http://www.w3.org/2000/svg">
<path d="M20.9305 0.0859375C18.2045 0.0859375 15.5051 0.62292 12.9867 1.66605C10.4682 2.70929 8.1799 4.23827 6.25224 6.16581C4.3247 8.09347 2.79572 10.3817 1.75247 12.9002C0.709346 15.4187 0.172363 18.1181 0.172363 20.8441C0.172363 23.57 0.709346 26.2694 1.75247 28.7879C2.79572 31.3064 4.3247 33.5947 6.25224 35.5223C8.1799 37.4498 10.4682 38.9788 12.9867 40.0221C15.5051 41.0652 18.2045 41.6022 20.9305 41.6022V31.2231C19.5674 31.2231 18.2178 30.9547 16.9586 30.433C15.6993 29.9114 14.5551 29.147 13.5914 28.1832C12.6276 27.2194 11.8631 26.0752 11.3415 24.816C10.8199 23.5567 10.5514 22.2071 10.5514 20.8441C10.5514 19.481 10.8199 18.1314 11.3415 16.8721C11.8631 15.6129 12.6276 14.4687 13.5914 13.5049C14.5551 12.5412 15.6993 11.7767 16.9586 11.2551C18.2178 10.7334 19.5674 10.465 20.9305 10.465V0.0859375Z" fill="#1A1A1A"/>
<path d="M20.9321 27.763C24.7536 27.763 27.8514 24.6652 27.8514 20.8437C27.8514 17.0221 24.7536 13.9243 20.9321 13.9243C17.1106 13.9243 14.0128 17.0221 14.0128 20.8437C14.0128 24.6652 17.1106 27.763 20.9321 27.763Z" fill="#1A1A1A"/>
<path d="M0.172363 20.8447C0.172363 23.5707 0.709346 26.2701 1.75247 28.7886C2.79572 31.3071 4.3247 33.5953 6.25224 35.523C8.1799 37.4505 10.4682 38.9795 12.9867 40.0227C15.5051 41.0659 18.2045 41.6029 20.9305 41.6029C23.6564 41.6029 26.3558 41.0659 28.8743 40.0227C31.3928 38.9795 33.6811 37.4505 35.6087 35.523C37.5363 33.5953 39.0653 31.3071 40.1085 28.7886C41.1516 26.2701 41.6886 23.5707 41.6886 20.8447H31.3096C31.3096 22.2078 31.0411 23.5574 30.5194 24.8166C29.9979 26.0759 29.2334 27.2201 28.2696 28.1839C27.3058 29.1476 26.1617 29.9121 24.9024 30.4337C23.6432 30.9554 22.2935 31.2238 20.9305 31.2238C19.5675 31.2238 18.2178 30.9554 16.9586 30.4337C15.6993 29.9121 14.5551 29.1476 13.5914 28.1839C12.6276 27.2201 11.8631 26.0759 11.3415 24.8166C10.8199 23.5574 10.5514 22.2078 10.5514 20.8447H0.172363Z" fill="#1A1A1A"/>
<path d="M27.8515 20.8438C27.8515 19.0086 27.1225 17.2487 25.825 15.951C24.5273 14.6533 22.7673 13.9243 20.9322 13.9243C19.0971 13.9243 17.3371 14.6533 16.0395 15.951C14.7418 17.2487 14.0128 19.0086 14.0128 20.8438H20.9322H27.8515Z" fill="#1A1A1A"/>
<path d="M52.5282 13.0488H49.9501V27.3719H52.5282V13.0488Z" fill="#1A1A1A"/>
<path d="M54.213 22.2945C54.213 25.6093 56.5046 27.6555 59.533 27.6555C62.5613 27.6555 64.853 25.6093 64.853 22.2945C64.853 18.9798 62.5613 16.9336 59.533 16.9336C56.5046 16.9336 54.213 18.9798 54.213 22.2945ZM56.7911 22.2945C56.7911 20.3302 57.937 19.1844 59.533 19.1844C61.129 19.1844 62.2748 20.3302 62.2748 22.2945C62.2748 24.2588 61.129 25.4047 59.533 25.4047C57.937 25.4047 56.7911 24.2588 56.7911 22.2945Z" fill="#1A1A1A"/>
<path d="M74.0656 17.2201V18.5909H73.861C73.2471 17.7111 72.265 16.9336 70.5053 16.9336C68.0908 16.9336 65.9219 18.9798 65.9219 22.1308C65.9219 25.2819 68.0908 27.3281 70.5053 27.3281C72.265 27.3281 73.2471 26.53 73.82 25.7321H74.0247V26.7142C74.0247 28.6785 72.8788 29.5789 71.201 29.5789C69.5231 29.5789 68.6637 28.6785 68.3158 27.5122L66.0037 28.5148C66.5357 30.0494 68.0908 31.7478 71.2419 31.7478C74.4748 31.7478 76.6028 30.0494 76.6028 26.7756V17.2201H74.0656ZM71.2828 25.1182C69.6868 25.1182 68.5 23.9724 68.5 22.1308C68.5 20.2893 69.6868 19.1434 71.2828 19.1434C72.8788 19.1434 74.0656 20.2893 74.0656 22.1308C74.0656 23.9724 72.8788 25.1182 71.2828 25.1182Z" fill="#1A1A1A"/>
<path d="M78.2703 22.2945C78.2703 25.6093 80.562 27.6555 83.5903 27.6555C86.6186 27.6555 88.9102 25.6093 88.9102 22.2945C88.9102 18.9798 86.6186 16.9336 83.5903 16.9336C80.562 16.9336 78.2703 18.9798 78.2703 22.2945ZM80.8484 22.2945C80.8484 20.3302 81.9943 19.1844 83.5903 19.1844C85.1863 19.1844 86.3321 20.3302 86.3321 22.2945C86.3321 24.2588 85.1863 25.4047 83.5903 25.4047C81.9943 25.4047 80.8484 24.2588 80.8484 22.2945Z" fill="#1A1A1A"/>
<path d="M90.9335 14.2734C90.9335 15.317 91.7318 16.0331 92.7554 16.0331C93.7779 16.0331 94.5762 15.317 94.5762 14.2734C94.5762 13.2299 93.7779 12.5137 92.7554 12.5137C91.7318 12.5137 90.9335 13.2299 90.9335 14.2734ZM94.0436 17.2198H91.4661V27.3688H94.0436V17.2198Z" fill="#1A1A1A"/>
<path d="M96.3408 31.4613H98.9196V26.0595H99.1236C99.6965 26.8779 100.679 27.6555 102.439 27.6555C104.853 27.6555 107.022 25.6093 107.022 22.2945C107.022 18.9798 104.853 16.9336 102.439 16.9336C100.679 16.9336 99.6965 17.7111 99.0833 18.591H98.8781V17.2201H96.3408V31.4613ZM101.661 25.4456C100.065 25.4456 98.8781 24.2998 98.8781 22.2945C98.8781 20.2893 100.065 19.1434 101.661 19.1434C103.257 19.1434 104.444 20.2893 104.444 22.2945C104.444 24.2998 103.257 25.4456 101.661 25.4456Z" fill="#1A1A1A"/>
<path d="M108.53 20.0643C108.53 22.0695 110.207 22.8061 112.335 23.2154L112.868 23.3176C114.136 23.5631 114.709 23.8701 114.709 24.5249C114.709 25.1797 114.136 25.6912 112.95 25.6912C111.762 25.6912 110.801 25.2001 110.535 23.7268L108.161 24.3407C108.51 26.4687 110.289 27.6555 112.95 27.6555C115.527 27.6555 117.206 26.4483 117.206 24.3203C117.206 22.1922 115.487 21.6194 113.195 21.1692L112.663 21.0668C111.599 20.8622 111.026 20.5758 111.026 19.9006C111.026 19.2867 111.558 18.8979 112.54 18.8979C113.523 18.8979 114.218 19.3071 114.463 20.4121L116.796 19.696C116.305 18.059 114.812 16.9336 112.54 16.9336C110.125 16.9336 108.53 18.059 108.53 20.0643Z" fill="#1A1A1A"/>
<path d="M128.788 27.3677V17.2188H126.21V22.4569C126.21 24.3394 125.29 25.4443 123.713 25.4443C122.322 25.4443 121.545 24.6873 121.545 23.1526V17.2188H118.966V23.2754C118.966 25.7922 120.543 27.5314 122.916 27.5314C124.777 27.5314 125.637 26.7129 126.047 25.8535H126.251V27.3677H128.788Z" fill="#1A1A1A"/>
<path d="M131.069 17.2213V27.3703H133.648V21.3136C133.648 19.9222 134.302 19.1447 135.489 19.1447C136.512 19.1447 137.126 19.7176 137.126 20.8225V27.3703H139.704V21.3136C139.704 19.9222 140.359 19.1447 141.545 19.1447C142.569 19.1447 143.182 19.7176 143.182 20.8225V27.3703H145.761V20.6998C145.761 18.2444 144.246 17.0576 142.364 17.0576C140.707 17.0576 139.95 17.7942 139.459 18.6536H139.254C138.783 17.692 137.944 17.0576 136.471 17.0576C134.998 17.0576 134.199 17.7124 133.811 18.4899H133.606V17.2213H131.069Z" fill="#1A1A1A"/>
</svg>
