<svg width="49" height="42" viewBox="0 0 49 42" fill="none" xmlns="http://www.w3.org/2000/svg">
<path d="M13.1091 0.585938H22.925L22.9493 0.628128L23.2367 0.629389L35.8798 0.684854L47.7158 21.3989L44.6898 26.6401L44.2567 27.3901H44.3094L36.3131 41.1009L12.4563 40.9942L9.40515 35.7094L8.97228 34.9596L8.96411 34.9738L1.08822 21.1933L13.1091 0.585938ZM24.8005 3.84362L30.4777 13.7037H30.4111L30.8448 14.4539L35.1324 21.8709L32.3749 26.6468L31.9416 27.3972L32.8082 27.3968L41.1313 27.3924L41.4198 27.3922L41.564 27.1424L44.74 21.6413L44.8836 21.3925L44.7411 21.1432L34.5943 3.38521L34.451 3.13454L34.1623 3.13327L25.236 3.09413L24.3667 3.09032L24.8005 3.84362ZM21.5556 3.2916L21.4112 3.04182H21.1227H14.8069H14.5198L14.3751 3.28989L4.06963 20.9563L3.92416 21.2057L4.06742 21.4564L8.53973 29.2817L8.97106 30.0364L9.40656 29.2841L10.0801 28.1206L10.0805 28.1199L19.8097 11.2475L25.288 11.2476L26.1546 11.2476L25.7209 10.4974L21.5556 3.2916ZM16.6848 21.583L16.5407 21.8329L16.6849 22.0828L19.6124 27.1537L19.7568 27.4039L20.0457 27.4038L28.8163 27.399L29.1048 27.3988L29.249 27.149L32.1516 22.1218L32.296 21.8716L32.1515 21.6216L27.7188 13.9534L27.5745 13.7037L27.286 13.7037L21.5173 13.7034L21.2284 13.7034L21.0841 13.9536L16.6848 21.583ZM10.533 32.2515L10.3889 32.5014L10.5331 32.7512L13.7343 38.2959L13.8779 38.5446L14.1651 38.5459L34.6174 38.6375L34.9061 38.6388L35.0515 38.3894L39.5669 30.647L40.0048 29.8961L39.1356 29.8951L27.6723 29.8815L27.6874 29.8555L26.8196 29.856L18.3392 29.8606L15.5618 25.0496L15.1294 24.3006L14.696 25.0491L12.2071 29.3483L12.2067 29.349L10.533 32.2515Z" fill="#1A1A1A" stroke="black"/>
</svg>
