<svg width="42" height="42" viewBox="0 0 42 42" fill="none" xmlns="http://www.w3.org/2000/svg">
<path fill-rule="evenodd" clip-rule="evenodd" d="M15.5871 0.0859375C11.8822 0.0859375 8.87877 3.08938 8.87877 6.79426V8.09898C6.64984 7.51662 4.17964 8.09867 2.43295 9.84536C-0.186824 12.4651 -0.186824 16.7126 2.43295 19.3324L3.35548 20.2549C1.36762 21.4192 0.0325928 23.5775 0.0325928 26.0476C0.0325928 29.7525 3.03603 32.7559 6.74092 32.7559H8.04554C7.46318 34.9848 8.04524 37.455 9.79192 39.2016C12.4117 41.8214 16.6592 41.8214 19.279 39.2016L22.0306 36.45C24.458 34.0226 25.5918 30.7913 25.4318 27.6131L29.6614 31.8425C32.2811 34.4623 36.5287 34.4623 39.1486 31.8425C41.7685 29.2228 41.7685 24.9753 39.1486 22.3556L38.2264 21.4332C40.2134 20.2689 41.5489 18.1106 41.5489 15.6405C41.5489 11.9356 38.5449 8.9322 34.8404 8.9322H33.5357C34.1182 6.70318 33.536 4.23298 31.7893 2.48629C29.1696 -0.133478 24.9222 -0.133478 22.3024 2.48629L19.5506 5.23805C17.1232 7.66546 15.9895 10.8966 16.1495 14.0748L11.92 9.84536C11.9094 9.83485 11.8989 9.82434 11.8882 9.81382V6.79426C11.8882 4.75144 13.5443 3.09541 15.5871 3.09541C17.2463 3.09541 18.6504 4.18791 19.1192 5.69281C19.2581 5.53834 19.4019 5.38669 19.5505 5.23805L21.3798 3.40882C20.2154 1.42096 18.0572 0.0859375 15.5871 0.0859375ZM31.8209 11.9417C31.8103 11.9522 31.7999 11.9628 31.7893 11.9733L27.5599 16.2027C30.5436 16.0526 33.5738 17.0425 35.9417 19.1726C37.4468 18.7038 38.5397 17.2997 38.5397 15.6405C38.5397 13.5977 36.8837 11.9417 34.8404 11.9417H31.8209ZM9.76028 29.7464C9.77079 29.7358 9.78131 29.7252 9.79192 29.7147L14.0213 25.4852C11.0377 25.6354 8.00755 24.6454 5.63946 22.5155C4.13457 22.9843 3.04197 24.3883 3.04197 26.0476C3.04197 28.0904 4.6981 29.7464 6.74092 29.7464H9.76028ZM5.52414 22.4104C5.40933 22.3043 5.29619 22.1955 5.18471 22.084V22.0842C5.29619 22.1956 5.40933 22.3043 5.52414 22.4104ZM25.9943 41.6022C23.5241 41.6022 21.3658 40.2671 20.2015 38.2792L22.0306 36.45C22.1794 36.3013 22.3231 36.1497 22.462 35.9952C22.9309 37.5001 24.3349 38.5927 25.9943 38.5927C28.0371 38.5927 29.6931 36.9367 29.6931 34.8939V31.8743C30.5599 32.7298 31.6019 33.3014 32.7026 33.589V34.8939C32.7026 38.5988 29.6991 41.6022 25.9943 41.6022ZM29.6614 4.61426C28.2168 3.16984 25.8749 3.16984 24.4303 4.61426L21.6786 7.366C18.6008 10.4439 18.3261 15.2633 20.8546 18.652L29.6614 9.84526C31.1059 8.40073 31.1059 6.05878 29.6614 4.61426ZM37.02 29.7146C38.4647 28.2701 38.4647 25.9281 37.02 24.4836L34.2686 21.7318C31.1908 18.6541 26.3713 18.3794 22.9826 20.9079L31.7893 29.7146C33.2338 31.1591 35.5763 31.1591 37.02 29.7146ZM17.1509 37.0737C15.7064 38.5182 13.3644 38.5182 11.9199 37.0737C10.4755 35.6291 10.4755 33.2872 11.9199 31.8427L20.7266 23.0359C23.2551 26.4246 22.9804 31.2442 19.9026 34.3219L17.1509 37.0737ZM4.56091 11.9733C3.11649 13.4178 3.11649 15.7598 4.56091 17.2043L7.31267 19.9561C10.3905 23.0338 15.21 23.3085 18.5986 20.78L9.79192 11.9733C8.3474 10.5289 6.00544 10.5289 4.56091 11.9733Z" fill="#1A1A1A"/>
</svg>
