<svg width="193" height="42" viewBox="0 0 193 42" fill="none" xmlns="http://www.w3.org/2000/svg">
<path fill-rule="evenodd" clip-rule="evenodd" d="M60.5674 2.69702C60.5674 1.25496 61.7491 0.0859375 63.2071 0.0859375H67.8056C68.8432 0.0859375 69.8489 0.441627 70.6512 1.09246L72.05 2.22718L72.085 2.25874C72.1173 2.24797 72.1496 2.23744 72.182 2.22718C74.7057 1.42759 77.7678 1.27552 80.893 1.27552C84.0182 1.27552 87.0803 1.42759 89.604 2.22718C89.6364 2.23744 89.6687 2.24797 89.701 2.25874L89.7359 2.22718L91.1348 1.09246C91.9371 0.441627 92.9428 0.0859375 93.9804 0.0859375H98.5789C100.037 0.0859375 101.219 1.25496 101.219 2.69702V4.31115C101.219 5.56001 100.687 6.7511 99.7535 7.59221L98.625 8.60935C98.0741 9.10591 97.4128 9.46728 96.6946 9.6643L96.4276 9.73753C97.4733 12.2056 98.051 14.8437 98.051 16.9779C98.051 25.5628 92.681 29.2705 87.9494 32.5374C84.2232 35.1102 80.893 37.4095 80.893 41.6022C80.893 37.4095 77.5628 35.1102 73.8366 32.5374C69.105 29.2705 63.735 25.5628 63.735 16.9779C63.735 14.8437 64.3127 12.2056 65.3584 9.73753L65.0914 9.6643C64.3732 9.46728 63.7119 9.10591 63.161 8.60935L62.0325 7.59221C61.0992 6.7511 60.5674 5.56001 60.5674 4.31115V2.69702ZM84.3246 23.9964C84.3246 24.4066 84.1438 24.7999 83.8221 25.0899C83.5003 25.3799 83.0639 25.5429 82.6087 25.5429C82.2159 25.5429 81.8369 25.4214 81.5336 25.2015C82.0498 26.5684 83.371 27.8636 85.3805 25.7808C87.1545 23.8454 85.3016 19.7634 83.4965 17.3412C82.8948 16.5338 81.907 16.1452 80.893 16.1452C79.879 16.1452 78.8912 16.5338 78.2895 17.3412C76.4844 19.7634 74.6315 23.8454 76.4055 25.7808C78.415 27.8636 79.7361 26.5684 80.2524 25.2015C79.9491 25.4214 79.5701 25.5429 79.1772 25.5429C78.7221 25.5429 78.2857 25.3799 77.9639 25.0899C77.6422 24.7999 77.4614 24.4066 77.4614 23.9964H84.3246ZM74.3223 11.913H69.5424L73.3094 14.8967C74.1384 15.5532 75.3501 15.3433 75.863 14.4543C76.5106 13.3319 75.6504 11.913 74.3223 11.913ZM87.4637 11.913H92.2436L88.4766 14.8967C87.6476 15.5532 86.4359 15.3433 85.923 14.4543C85.2753 13.3319 86.1356 11.913 87.4637 11.913Z" fill="#1A1A1A"/>
<path d="M106.916 29.4911H111.151V13.5177H106.916V29.4911ZM106.916 11.0268H111.151V7.22803H106.916V11.0268Z" fill="#1A1A1A"/>
<path d="M113.88 34.7263H118.115V27.6893H118.177C119.08 29.0593 120.544 29.9623 122.786 29.9623C126.896 29.9623 129.698 26.6929 129.698 21.5241C129.698 16.5422 126.989 13.0859 122.755 13.0859C120.575 13.0859 119.08 14.1135 118.053 15.5146H117.959V13.5219H113.88V34.7263ZM121.883 26.4438C119.361 26.4438 118.022 24.5444 118.022 21.6487C118.022 18.784 119.08 16.511 121.727 16.511C124.343 16.511 125.401 18.6283 125.401 21.6487C125.401 24.669 124.031 26.4438 121.883 26.4438Z" fill="#1A1A1A"/>
<path d="M138.141 29.9623C142.126 29.9623 144.866 28.0318 144.866 24.8246C144.866 21.0882 141.908 20.3409 139.23 19.7804C136.957 19.3134 134.84 19.1888 134.84 17.8188C134.84 16.6667 135.93 16.044 137.58 16.044C139.386 16.044 140.476 16.6667 140.663 18.3793H144.493C144.181 15.1721 141.846 13.0859 137.642 13.0859C133.999 13.0859 131.135 14.7362 131.135 18.1924C131.135 21.6798 133.937 22.4582 136.802 23.0187C138.981 23.4546 141.005 23.6103 141.005 25.136C141.005 26.257 139.947 26.9731 138.078 26.9731C136.179 26.9731 134.871 26.1635 134.591 24.3265H130.668C130.917 27.7204 133.501 29.9623 138.141 29.9623Z" fill="#1A1A1A"/>
<path d="M160.95 29.4948V13.5215H156.715V22.7381C156.715 24.8554 155.501 26.35 153.508 26.35C151.702 26.35 150.861 25.3225 150.861 23.4542V13.5215H146.658V24.1704C146.658 27.6578 148.651 29.9308 152.2 29.9308C154.442 29.9308 155.688 29.0901 156.778 27.6266H156.871V29.4948H160.95Z" fill="#1A1A1A"/>
<path d="M163.686 29.4952H167.921V20.2163C167.921 18.099 169.073 16.729 170.785 16.729C172.342 16.729 173.245 17.6631 173.245 19.4691V29.4952H177.48V20.2163C177.48 18.099 178.57 16.729 180.345 16.729C181.901 16.729 182.804 17.6631 182.804 19.4691V29.4952H187.039V18.7529C187.039 15.2655 185.14 13.0859 181.777 13.0859C179.753 13.0859 178.072 14.1446 176.982 15.8883H176.919C176.141 14.2069 174.522 13.0859 172.498 13.0859C170.287 13.0859 168.73 14.2069 167.859 15.6703H167.765V13.5219H163.686V29.4952Z" fill="#1A1A1A"/>
<path d="M0.00268555 29.4911H4.23734V7.22803H0.00268555V29.4911Z" fill="#1A1A1A"/>
<path d="M14.5935 29.9623C19.5443 29.9623 22.9382 26.2881 22.9382 21.5241C22.9382 16.7601 19.5443 13.0859 14.5935 13.0859C9.64261 13.0859 6.24866 16.7601 6.24866 21.5241C6.24866 26.2881 9.64261 29.9623 14.5935 29.9623ZM14.5935 26.724C11.9779 26.724 10.5456 24.6378 10.5456 21.5241C10.5456 18.4104 11.9779 16.2931 14.5935 16.2931C17.1779 16.2931 18.6413 18.4104 18.6413 21.5241C18.6413 24.6378 17.1779 26.724 14.5935 26.724Z" fill="#1A1A1A"/>
<path d="M31.9402 34.9442C34.3066 34.9442 36.3617 34.3838 37.7006 33.1383C38.8838 32.0485 39.5999 30.5227 39.5999 28.2809V13.5219H35.521V15.2033H35.4587C34.4934 13.8644 33.03 13.0859 31.0372 13.0859C26.9894 13.0859 24.1248 16.1374 24.1248 20.9014C24.1248 25.7276 27.6121 28.53 31.1618 28.53C33.1857 28.53 34.4 27.7204 35.3341 26.6617H35.4275V28.4054C35.4275 30.585 34.2755 31.7371 31.8779 31.7371C29.9163 31.7371 29.0133 30.9587 28.6708 29.9623H24.4673C24.9032 33.076 27.581 34.9442 31.9402 34.9442ZM31.8779 25.136C29.6983 25.136 28.266 23.548 28.266 20.8391C28.266 18.1613 29.6983 16.4799 31.8468 16.4799C34.4 16.4799 35.6455 18.4727 35.6455 20.808C35.6455 23.1744 34.5557 25.136 31.8779 25.136Z" fill="#1A1A1A"/>
<path d="M49.8961 29.9623C54.847 29.9623 58.2409 26.2881 58.2409 21.5241C58.2409 16.7601 54.847 13.0859 49.8961 13.0859C44.9453 13.0859 41.5514 16.7601 41.5514 21.5241C41.5514 26.2881 44.9453 29.9623 49.8961 29.9623ZM49.8961 26.724C47.2806 26.724 45.8483 24.6378 45.8483 21.5241C45.8483 18.4104 47.2806 16.2931 49.8961 16.2931C52.4805 16.2931 53.944 18.4104 53.944 21.5241C53.944 24.6378 52.4805 26.724 49.8961 26.724Z" fill="#1A1A1A"/>
<path d="M186.844 10.0347C186.844 9.31816 187.425 8.7373 188.142 8.7373H190.737C191.453 8.7373 192.034 9.31816 192.034 10.0347C192.034 10.7512 191.453 11.3321 190.737 11.3321H188.142C187.425 11.3321 186.844 10.7512 186.844 10.0347Z" fill="#1A1A1A"/>
</svg>
